<svg width="412" height="143" viewBox="0 0 412 143" fill="none" xmlns="http://www.w3.org/2000/svg">
<g filter="url(#filter0_f)">
<ellipse cx="71.5" cy="113" rx="31.5" ry="12" fill="#E3E3E3"/>
</g>
<path d="M95.3569 65.6399L73.0807 1.75554C72.5787 0.316258 70.543 0.315961 70.0408 1.75554L47.7643 65.6402L47.7643 74.1591L95.3569 74.1588L95.3569 65.6399Z" fill="#FED9A8"/>
<path d="M70.0407 1.75552L58.2409 35.5957L84.8804 35.5957L73.0807 1.75551C72.5784 0.315927 70.543 0.315932 70.0407 1.75552Z" fill="#333333"/>
<path d="M71.5607 0.675796C70.926 0.675797 70.2917 1.03562 70.041 1.75526L47.7646 65.64L47.7646 74.1588L71.561 74.1588L71.5607 0.675796Z" fill="#F4C892"/>
<path d="M71.5607 0.675764C70.9261 0.675765 70.2917 1.03558 70.0407 1.75553L58.241 35.5957L71.5607 35.5957L71.5607 0.675764Z" fill="#1A1A1A"/>
<path d="M47.7648 65.7153H63.7613L63.5538 119.325L47.7648 109.814V65.7153Z" fill="#7E2559"/>
<rect x="63.5539" y="65.7155" width="16.4289" height="53.6099" fill="#B3337D"/>
<path d="M79.9827 65.7155H95.1145V109.992L79.9827 119.325V65.7155Z" fill="#CE2B8A"/>
<path d="M133.308 100H136.916V91.0958L140.25 100H143.162L146.475 91.1169V100H150.083V85.1878H145.842L141.727 95.4424L137.57 85.1878H133.308V100ZM152.698 94.092C152.698 97.8056 154.998 100.169 157.868 100.169C159.619 100.169 160.864 99.367 161.518 98.3331V100H165.126V88.2262H161.518V89.8931C160.885 88.8592 159.64 88.0574 157.889 88.0574C154.998 88.0574 152.698 90.3784 152.698 94.092ZM161.518 94.1131C161.518 95.991 160.316 97.0249 158.944 97.0249C157.594 97.0249 156.37 95.9699 156.37 94.092C156.37 92.2141 157.594 91.2013 158.944 91.2013C160.316 91.2013 161.518 92.2352 161.518 94.1131ZM156.707 84.9346V87.4244L161.793 85.2933V82.487L156.707 84.9346ZM178.033 96.5818C177.97 92.193 171.598 93.5223 171.598 91.6444C171.598 91.0747 172.062 90.7371 172.906 90.7371C173.919 90.7371 174.531 91.2646 174.636 92.0664H177.97C177.738 89.7454 176.05 88.0574 173.012 88.0574C169.931 88.0574 168.222 89.7032 168.222 91.7077C168.222 96.0332 174.636 94.6617 174.636 96.5607C174.636 97.0882 174.151 97.5102 173.223 97.5102C172.231 97.5102 171.492 96.9616 171.408 96.1387H167.842C168.011 98.4175 170.121 100.169 173.265 100.169C176.219 100.169 178.033 98.6285 178.033 96.5818ZM186.189 100H189.797V88.2262H186.189V100ZM188.004 87.0024C189.27 87.0024 190.135 86.1373 190.135 85.0612C190.135 83.964 189.27 83.0989 188.004 83.0989C186.717 83.0989 185.852 83.964 185.852 85.0612C185.852 86.1373 186.717 87.0024 188.004 87.0024ZM192.433 94.092C192.433 97.8056 194.733 100.169 197.624 100.169C199.354 100.169 200.599 99.3881 201.253 98.312V100H204.861V84.386H201.253V89.8509C200.536 88.7748 199.185 88.0574 197.624 88.0574C194.733 88.0574 192.433 90.3784 192.433 94.092ZM201.253 94.1131C201.253 95.991 200.05 97.0249 198.679 97.0249C197.328 97.0249 196.105 95.9699 196.105 94.092C196.105 92.2141 197.328 91.2013 198.679 91.2013C200.05 91.2013 201.253 92.2352 201.253 94.1131ZM213.401 90.9481C214.603 90.9481 215.616 91.6866 215.616 92.9737H211.101C211.312 91.6655 212.219 90.9481 213.401 90.9481ZM219.034 96.0965H215.194C214.899 96.7295 214.329 97.2359 213.316 97.2359C212.156 97.2359 211.206 96.5185 211.08 94.9782H219.245C219.287 94.6195 219.309 94.2608 219.309 93.9232C219.309 90.3362 216.882 88.0574 213.443 88.0574C209.94 88.0574 207.493 90.3784 207.493 94.1131C207.493 97.8478 209.982 100.169 213.443 100.169C216.376 100.169 218.465 98.3964 219.034 96.0965ZM221.233 94.092C221.233 97.8056 223.533 100.169 226.403 100.169C228.154 100.169 229.399 99.367 230.053 98.3331V100H233.661V88.2262H230.053V89.8931C229.42 88.8592 228.175 88.0574 226.424 88.0574C223.533 88.0574 221.233 90.3784 221.233 94.092ZM230.053 94.1131C230.053 95.991 228.85 97.0249 227.479 97.0249C226.128 97.0249 224.904 95.9699 224.904 94.092C224.904 92.2141 226.128 91.2013 227.479 91.2013C228.85 91.2013 230.053 92.2352 230.053 94.1131ZM246.568 96.5818C246.505 92.193 240.133 93.5223 240.133 91.6444C240.133 91.0747 240.597 90.7371 241.441 90.7371C242.454 90.7371 243.065 91.2646 243.171 92.0664H246.505C246.273 89.7454 244.585 88.0574 241.546 88.0574C238.466 88.0574 236.757 89.7032 236.757 91.7077C236.757 96.0332 243.171 94.6617 243.171 96.5607C243.171 97.0882 242.686 97.5102 241.757 97.5102C240.766 97.5102 240.027 96.9616 239.943 96.1387H236.377C236.546 98.4175 238.656 100.169 241.799 100.169C244.753 100.169 246.568 98.6285 246.568 96.5818ZM248.607 103.186H250.97L253.65 96.3497H249.957L248.607 103.186ZM277.808 100H281.395V93.1214C281.395 89.9564 279.517 88.0996 276.605 88.0996C274.896 88.0996 273.419 89.0491 272.639 90.294C271.837 88.8803 270.402 88.0996 268.63 88.0996C267.089 88.0996 265.887 88.7537 265.19 89.7032V88.2262H261.582V100H265.19V93.6067C265.19 92.0664 266.076 91.2224 267.448 91.2224C268.819 91.2224 269.706 92.0664 269.706 93.6067V100H273.293V93.6067C273.293 92.0664 274.179 91.2224 275.55 91.2224C276.922 91.2224 277.808 92.0664 277.808 93.6067V100ZM289.848 90.9481C291.05 90.9481 292.063 91.6866 292.063 92.9737H287.548C287.759 91.6655 288.666 90.9481 289.848 90.9481ZM295.481 96.0965H291.641C291.346 96.7295 290.776 97.2359 289.763 97.2359C288.603 97.2359 287.653 96.5185 287.527 94.9782H295.692C295.735 94.6195 295.756 94.2608 295.756 93.9232C295.756 90.3362 293.329 88.0574 289.89 88.0574C286.387 88.0574 283.94 90.3784 283.94 94.1131C283.94 97.8478 286.429 100.169 289.89 100.169C292.823 100.169 294.912 98.3964 295.481 96.0965ZM306.521 100H310.108V93.1214C310.108 89.9564 308.293 88.0996 305.572 88.0996C303.989 88.0996 302.723 88.7959 302.006 89.7876V88.2262H298.398V100H302.006V93.6067C302.006 92.0031 302.892 91.1169 304.263 91.1169C305.635 91.1169 306.521 92.0031 306.521 93.6067V100ZM324.874 94.1131C324.874 90.3784 322.216 88.0574 318.755 88.0574C315.316 88.0574 312.636 90.3784 312.636 94.1131C312.636 97.8478 315.253 100.169 318.713 100.169C322.174 100.169 324.874 97.8478 324.874 94.1131ZM316.308 94.1131C316.308 92.1086 317.447 91.1802 318.755 91.1802C320.021 91.1802 321.203 92.1086 321.203 94.1131C321.203 96.0965 320 97.046 318.713 97.046C317.405 97.046 316.308 96.0965 316.308 94.1131ZM337.085 96.5818C337.022 92.193 330.65 93.5223 330.65 91.6444C330.65 91.0747 331.114 90.7371 331.958 90.7371C332.971 90.7371 333.583 91.2646 333.688 92.0664H337.022C336.79 89.7454 335.102 88.0574 332.064 88.0574C328.983 88.0574 327.274 89.7032 327.274 91.7077C327.274 96.0332 333.688 94.6617 333.688 96.5607C333.688 97.0882 333.203 97.5102 332.275 97.5102C331.283 97.5102 330.544 96.9616 330.46 96.1387H326.894C327.063 98.4175 329.173 100.169 332.317 100.169C335.271 100.169 337.085 98.6285 337.085 96.5818ZM348.849 89.8931V88.2262H345.241V105.613H348.849V98.3542C349.503 99.3459 350.748 100.169 352.479 100.169C355.369 100.169 357.669 97.8056 357.669 94.092C357.669 90.3784 355.369 88.0574 352.479 88.0574C350.748 88.0574 349.503 88.8592 348.849 89.8931ZM353.998 94.092C353.998 95.9699 352.774 97.0249 351.402 97.0249C350.052 97.0249 348.828 95.991 348.828 94.1131C348.828 92.2352 350.052 91.2013 351.402 91.2013C352.774 91.2013 353.998 92.2141 353.998 94.092ZM359.583 94.092C359.583 97.8056 361.883 100.169 364.753 100.169C366.504 100.169 367.749 99.367 368.403 98.3331V100H372.011V88.2262H368.403V89.8931C367.77 88.8592 366.525 88.0574 364.774 88.0574C361.883 88.0574 359.583 90.3784 359.583 94.092ZM368.403 94.1131C368.403 95.991 367.2 97.0249 365.829 97.0249C364.478 97.0249 363.255 95.9699 363.255 94.092C363.255 92.2141 364.478 91.2013 365.829 91.2013C367.2 91.2013 368.403 92.2352 368.403 94.1131ZM378.968 89.8931V88.2262H375.36V105.613H378.968V98.3542C379.622 99.3459 380.867 100.169 382.597 100.169C385.488 100.169 387.788 97.8056 387.788 94.092C387.788 90.3784 385.488 88.0574 382.597 88.0574C380.867 88.0574 379.622 88.8592 378.968 89.8931ZM384.116 94.092C384.116 95.9699 382.893 97.0249 381.521 97.0249C380.171 97.0249 378.947 95.991 378.947 94.1131C378.947 92.2352 380.171 91.2013 381.521 91.2013C382.893 91.2013 384.116 92.2141 384.116 94.092ZM395.61 90.9481C396.812 90.9481 397.825 91.6866 397.825 92.9737H393.31C393.521 91.6655 394.428 90.9481 395.61 90.9481ZM401.243 96.0965H397.403C397.108 96.7295 396.538 97.2359 395.525 97.2359C394.365 97.2359 393.415 96.5185 393.289 94.9782H401.454C401.497 94.6195 401.518 94.2608 401.518 93.9232C401.518 90.3362 399.091 88.0574 395.652 88.0574C392.149 88.0574 389.702 90.3784 389.702 94.1131C389.702 97.8478 392.192 100.169 395.652 100.169C398.585 100.169 400.674 98.3964 401.243 96.0965ZM404.16 100H407.768V84.386H404.16V100Z" fill="#85C7B5"/>
<path d="M95.3569 65.6399L73.0807 1.75554C72.5787 0.316258 70.543 0.315961 70.0408 1.75554L47.7643 65.6402L47.7643 74.1591L95.3569 74.1588L95.3569 65.6399Z" fill="#FED9A8"/>
<path d="M70.0407 1.75552L58.2409 35.5957L84.8804 35.5957L73.0807 1.75551C72.5784 0.315927 70.543 0.315932 70.0407 1.75552Z" fill="#333333"/>
<path d="M71.5607 0.675796C70.926 0.675797 70.2917 1.03562 70.041 1.75526L47.7646 65.64L47.7646 74.1588L71.561 74.1588L71.5607 0.675796Z" fill="#F4C892"/>
<path d="M71.5607 0.675764C70.9261 0.675765 70.2917 1.03558 70.0407 1.75553L58.241 35.5957L71.5607 35.5957L71.5607 0.675764Z" fill="#1A1A1A"/>
<path d="M47.7648 65.7153H63.7613L63.5538 119.325L47.7648 109.814V65.7153Z" fill="#7E2559"/>
<rect x="63.5539" y="65.7155" width="16.4289" height="53.6099" fill="#B3337D"/>
<path d="M79.9827 65.7155H95.1145V109.992L79.9827 119.325V65.7155Z" fill="#CE2B8A"/>
<path d="M161.888 61.714C161.888 49.024 143.15 51.994 143.15 45.406C143.15 43.03 144.824 41.896 147.038 41.95C149.522 42.004 151.25 43.462 151.412 45.892H161.402C161.024 38.656 155.462 34.552 147.2 34.552C139.262 34.552 133.376 38.548 133.376 45.73C133.268 59.176 152.222 55.396 152.222 62.416C152.222 64.63 150.494 65.98 147.794 65.98C145.202 65.98 143.366 64.576 143.096 61.66H133.268C133.538 69.328 139.91 73.378 148.064 73.378C156.92 73.378 161.888 68.086 161.888 61.714ZM164.169 57.718C164.169 68.194 171.027 73.378 179.829 73.378C188.577 73.378 195.921 68.194 195.921 57.718V35.092H186.687V57.772C186.687 62.254 184.365 64.846 179.991 64.846C175.617 64.846 173.403 62.254 173.403 57.772V35.092H164.169V57.718ZM208.399 52.048V42.544H213.421C217.093 42.544 218.659 44.38 218.659 47.296C218.659 50.212 217.093 52.048 213.421 52.048H208.399ZM228.055 47.296C228.055 40.33 223.411 35.092 214.123 35.092H199.165V73H208.399V59.392H214.123C223.789 59.392 228.055 53.56 228.055 47.296ZM252.842 35.092H229.622V73H252.842V65.602H238.856V57.286H251.222V50.158H238.856V42.49H252.842V35.092ZM275.631 47.404C275.631 50.374 274.011 52.156 270.555 52.156H264.831V42.76H270.555C274.011 42.76 275.631 44.596 275.631 47.404ZM255.597 35.092V73H264.831V58.69H267.045L274.929 73H285.351L276.603 57.988C282.435 56.26 285.027 51.778 285.027 47.026C285.027 40.438 280.383 35.092 271.095 35.092H255.597ZM287.584 35.092V73H308.914V65.872H296.818V35.092H287.584ZM310.078 73H319.312V35.092H310.078V73ZM350.304 61.714C350.304 49.024 331.566 51.994 331.566 45.406C331.566 43.03 333.24 41.896 335.454 41.95C337.938 42.004 339.666 43.462 339.828 45.892H349.818C349.44 38.656 343.878 34.552 335.616 34.552C327.678 34.552 321.792 38.548 321.792 45.73C321.684 59.176 340.638 55.396 340.638 62.416C340.638 64.63 338.91 65.98 336.21 65.98C333.618 65.98 331.782 64.576 331.512 61.66H321.684C321.954 69.328 328.326 73.378 336.48 73.378C345.336 73.378 350.304 68.086 350.304 61.714ZM350.694 42.49H360.738V73H369.972V42.49H380.016V35.092H350.694V42.49ZM408.951 61.714C408.951 49.024 390.213 51.994 390.213 45.406C390.213 43.03 391.887 41.896 394.101 41.95C396.585 42.004 398.313 43.462 398.475 45.892H408.465C408.087 38.656 402.525 34.552 394.263 34.552C386.325 34.552 380.439 38.548 380.439 45.73C380.331 59.176 399.285 55.396 399.285 62.416C399.285 64.63 397.557 65.98 394.857 65.98C392.265 65.98 390.429 64.576 390.159 61.66H380.331C380.601 69.328 386.973 73.378 395.127 73.378C403.983 73.378 408.951 68.086 408.951 61.714Z" fill="#227F83"/>
<defs>
<filter id="filter0_f" x="38" y="99" width="67" height="28" filterUnits="userSpaceOnUse" color-interpolation-filters="sRGB">
<feFlood flood-opacity="0" result="BackgroundImageFix"/>
<feBlend mode="normal" in="SourceGraphic" in2="BackgroundImageFix" result="shape"/>
<feGaussianBlur stdDeviation="1" result="effect1_foregroundBlur"/>
</filter>
</defs>
</svg>
